<?xml version="1.0" encoding="utf-8"?>
<!-- Generator: Adobe Illustrator 22.0.0, SVG Export Plug-In . SVG Version: 6.00 Build 0)  -->
<svg version="1.1" id="Layer_1" xmlns="http://www.w3.org/2000/svg" xmlns:xlink="http://www.w3.org/1999/xlink" x="0px" y="0px"
	 viewBox="0 0 1000 1000" style="enable-background:new 0 0 1000 1000;" xml:space="preserve">
<style type="text/css">
	.st0{fill:#B41F39;}
	.st1{fill:#EC2B55;stroke:#EC2B55;stroke-miterlimit:10;}
	.st2{fill:#FFFFFF;}
</style>
<path class="st0" d="M496,483.5c-19.8,0-36,16.7-36,37.1c0,20.4,16.2,37.1,36,37.1c19.8,0,36-16.7,36-37.1
	C532,500.2,515.8,483.5,496,483.5 M604,520.6c0-61.2-48.6-111.2-108-111.2s-108,50-108,111.2c0,40.8,21.6,76,54,96.4l18-31.5
	c-21.6-13-36-37.1-36-63c0-40.8,32.4-74.1,72-74.1s72,33.4,72,74.1c0,27.8-14.4,51.9-36,63l18,31.5C582.4,598.4,604,561.4,604,520.6
	 M496,335.2c-99,0-180,83.4-180,185.4c0,68.6,36,127.9,90,159.4l18-31.5c-43.2-26-72-74.1-72-127.9c0-81.6,64.8-148.3,144-148.3
	S640,439,640,520.6c0,55.6-28.8,102-72,127.9l18,31.5c54-31.5,90-90.8,90-159.4C676,418.6,595,335.2,496,335.2z"/>
<path class="st1" d="M359.3,359.7c-33.8,14.1-107.4,69.3-73.8,119.1c14.8,22,40.6,37.6,64.1,44.9c21.9,6.9,48.7-1.6,68.7,7.6
	c-4.3,10.4-19.3,48.3-32.2,45.5c-24.1-5.2-48.5-0.9-67.4,17.3c-38.6-53.6-93.6-75.3-154.3-60.4c44.9-55.4,34.1-113.4-13.2-166.3
	c-28.5-31.9-97.8-77.3-142.3-58.8C120.1,262.3,255.6,297.3,359.3,359.7C341.3,367.2,351.9,355.3,359.3,359.7L359.3,359.7z
	 M640.7,359.7c33.8,14.1,107.4,69.3,73.8,119.1c-14.8,22-40.6,37.6-64.1,44.9c-21.9,6.9-48.7-1.6-68.7,7.6
	c4.3,10.4,19.3,48.2,32.2,45.5c24.1-5.2,48.5-0.9,67.4,17.3c38.6-53.6,93.6-75.3,154.3-60.4c-44.9-55.4-34.1-113.4,13.2-166.3
	c28.5-31.9,97.8-77.3,142.3-58.8C879.9,262.3,744.4,297.3,640.7,359.7C658.7,367.2,648.1,355.3,640.7,359.7z"/>
<path class="st2" d="M376.1,484.2h47.3v32.4c14-13.4,28.8-23,44.5-28.8c15.7-5.8,33.1-8.7,52.2-8.7c42,0,70.4,11.3,85.1,33.9
	c8.1,12.4,12.2,30.1,12.2,53.1v146.6h-50.6v-144c0-13.9-2.7-25.2-8-33.7c-8.8-14.2-24.9-21.3-48.1-21.3c-11.8,0-21.5,0.9-29,2.8
	c-13.6,3.1-25.6,9.4-35.9,18.8c-8.3,7.5-13.7,15.3-16.2,23.4c-2.5,8-3.7,19.5-3.7,34.5v119.7h-49.7L376.1,484.2L376.1,484.2z"/>
</svg>
